<?xml version="1.0" encoding="UTF-8"?>
<svg width="1275px" height="1653px" viewBox="0 0 1275 1653" version="1.1" xmlns="http://www.w3.org/2000/svg" xmlns:xlink="http://www.w3.org/1999/xlink">
    <!-- Generator: Sketch 47.1 (45422) - http://www.bohemiancoding.com/sketch -->
    <title>Stars</title>
    <desc>Created with Sketch.</desc>
    <defs>
        <filter x="-133.2%" y="-133.3%" width="366.5%" height="366.7%" filterUnits="objectBoundingBox" id="filter-1">
            <feGaussianBlur stdDeviation="2" in="SourceGraphic"/>
        </filter>
        <filter x="-133.2%" y="-133.3%" width="366.5%" height="366.7%" filterUnits="objectBoundingBox" id="filter-2">
            <feGaussianBlur stdDeviation="2" in="SourceGraphic"/>
        </filter>
        <filter x="-199.8%" y="-200.0%" width="499.7%" height="500.0%" filterUnits="objectBoundingBox" id="filter-3">
            <feGaussianBlur stdDeviation="2" in="SourceGraphic"/>
        </filter>
        <filter x="-399.7%" y="-400.0%" width="899.4%" height="900.0%" filterUnits="objectBoundingBox" id="filter-4">
            <feGaussianBlur stdDeviation="2" in="SourceGraphic"/>
        </filter>
        <filter x="-399.7%" y="-400.0%" width="899.4%" height="900.0%" filterUnits="objectBoundingBox" id="filter-5">
            <feGaussianBlur stdDeviation="2" in="SourceGraphic"/>
        </filter>
        <filter x="-399.7%" y="-400.0%" width="899.4%" height="900.0%" filterUnits="objectBoundingBox" id="filter-6">
            <feGaussianBlur stdDeviation="2" in="SourceGraphic"/>
        </filter>
        <filter x="-399.7%" y="-400.0%" width="899.4%" height="900.0%" filterUnits="objectBoundingBox" id="filter-7">
            <feGaussianBlur stdDeviation="2" in="SourceGraphic"/>
        </filter>
        <filter x="-199.8%" y="-200.0%" width="499.7%" height="500.0%" filterUnits="objectBoundingBox" id="filter-8">
            <feGaussianBlur stdDeviation="2" in="SourceGraphic"/>
        </filter>
        <filter x="-199.8%" y="-200.0%" width="499.7%" height="500.0%" filterUnits="objectBoundingBox" id="filter-9">
            <feGaussianBlur stdDeviation="2" in="SourceGraphic"/>
        </filter>
        <filter x="-133.2%" y="-133.3%" width="366.5%" height="366.7%" filterUnits="objectBoundingBox" id="filter-10">
            <feGaussianBlur stdDeviation="2" in="SourceGraphic"/>
        </filter>
        <filter x="-133.2%" y="-133.3%" width="366.5%" height="366.7%" filterUnits="objectBoundingBox" id="filter-11">
            <feGaussianBlur stdDeviation="2" in="SourceGraphic"/>
        </filter>
        <filter x="-199.8%" y="-200.0%" width="499.7%" height="500.0%" filterUnits="objectBoundingBox" id="filter-12">
            <feGaussianBlur stdDeviation="2" in="SourceGraphic"/>
        </filter>
        <filter x="-399.7%" y="-400.0%" width="899.4%" height="900.0%" filterUnits="objectBoundingBox" id="filter-13">
            <feGaussianBlur stdDeviation="2" in="SourceGraphic"/>
        </filter>
        <filter x="-399.7%" y="-400.0%" width="899.4%" height="900.0%" filterUnits="objectBoundingBox" id="filter-14">
            <feGaussianBlur stdDeviation="2" in="SourceGraphic"/>
        </filter>
        <filter x="-399.7%" y="-400.0%" width="899.4%" height="900.0%" filterUnits="objectBoundingBox" id="filter-15">
            <feGaussianBlur stdDeviation="2" in="SourceGraphic"/>
        </filter>
        <filter x="-399.7%" y="-400.0%" width="899.4%" height="900.0%" filterUnits="objectBoundingBox" id="filter-16">
            <feGaussianBlur stdDeviation="2" in="SourceGraphic"/>
        </filter>
        <filter x="-199.8%" y="-200.0%" width="499.7%" height="500.0%" filterUnits="objectBoundingBox" id="filter-17">
            <feGaussianBlur stdDeviation="2" in="SourceGraphic"/>
        </filter>
        <filter x="-199.8%" y="-200.0%" width="499.7%" height="500.0%" filterUnits="objectBoundingBox" id="filter-18">
            <feGaussianBlur stdDeviation="2" in="SourceGraphic"/>
        </filter>
        <filter x="-133.2%" y="-133.3%" width="366.5%" height="366.7%" filterUnits="objectBoundingBox" id="filter-19">
            <feGaussianBlur stdDeviation="2" in="SourceGraphic"/>
        </filter>
        <filter x="-133.2%" y="-133.3%" width="366.5%" height="366.7%" filterUnits="objectBoundingBox" id="filter-20">
            <feGaussianBlur stdDeviation="2" in="SourceGraphic"/>
        </filter>
        <filter x="-199.8%" y="-200.0%" width="499.7%" height="500.0%" filterUnits="objectBoundingBox" id="filter-21">
            <feGaussianBlur stdDeviation="2" in="SourceGraphic"/>
        </filter>
        <filter x="-399.7%" y="-400.0%" width="899.4%" height="900.0%" filterUnits="objectBoundingBox" id="filter-22">
            <feGaussianBlur stdDeviation="2" in="SourceGraphic"/>
        </filter>
        <filter x="-399.7%" y="-400.0%" width="899.4%" height="900.0%" filterUnits="objectBoundingBox" id="filter-23">
            <feGaussianBlur stdDeviation="2" in="SourceGraphic"/>
        </filter>
        <filter x="-399.7%" y="-400.0%" width="899.4%" height="900.0%" filterUnits="objectBoundingBox" id="filter-24">
            <feGaussianBlur stdDeviation="2" in="SourceGraphic"/>
        </filter>
        <filter x="-399.7%" y="-400.0%" width="899.4%" height="900.0%" filterUnits="objectBoundingBox" id="filter-25">
            <feGaussianBlur stdDeviation="2" in="SourceGraphic"/>
        </filter>
        <filter x="-199.8%" y="-200.0%" width="499.7%" height="500.0%" filterUnits="objectBoundingBox" id="filter-26">
            <feGaussianBlur stdDeviation="2" in="SourceGraphic"/>
        </filter>
        <filter x="-199.8%" y="-200.0%" width="499.7%" height="500.0%" filterUnits="objectBoundingBox" id="filter-27">
            <feGaussianBlur stdDeviation="2" in="SourceGraphic"/>
        </filter>
        <filter x="-50.0%" y="-50.0%" width="200.0%" height="200.0%" filterUnits="objectBoundingBox" id="filter-28">
            <feGaussianBlur stdDeviation="2" in="SourceGraphic"/>
        </filter>
        <filter x="-100.0%" y="-100.0%" width="300.0%" height="300.0%" filterUnits="objectBoundingBox" id="filter-29">
            <feGaussianBlur stdDeviation="2" in="SourceGraphic"/>
        </filter>
        <filter x="-66.7%" y="-66.7%" width="233.3%" height="233.3%" filterUnits="objectBoundingBox" id="filter-30">
            <feGaussianBlur stdDeviation="2" in="SourceGraphic"/>
        </filter>
        <filter x="-100.0%" y="-100.0%" width="300.0%" height="300.0%" filterUnits="objectBoundingBox" id="filter-31">
            <feGaussianBlur stdDeviation="2" in="SourceGraphic"/>
        </filter>
        <filter x="-150.0%" y="-150.0%" width="400.0%" height="400.0%" filterUnits="objectBoundingBox" id="filter-32">
            <feGaussianBlur stdDeviation="2" in="SourceGraphic"/>
        </filter>
        <filter x="-150.0%" y="-150.0%" width="400.0%" height="400.0%" filterUnits="objectBoundingBox" id="filter-33">
            <feGaussianBlur stdDeviation="2" in="SourceGraphic"/>
        </filter>
        <filter x="-150.0%" y="-150.0%" width="400.0%" height="400.0%" filterUnits="objectBoundingBox" id="filter-34">
            <feGaussianBlur stdDeviation="2" in="SourceGraphic"/>
        </filter>
        <filter x="-150.0%" y="-150.0%" width="400.0%" height="400.0%" filterUnits="objectBoundingBox" id="filter-35">
            <feGaussianBlur stdDeviation="2" in="SourceGraphic"/>
        </filter>
        <filter x="-100.0%" y="-100.0%" width="300.0%" height="300.0%" filterUnits="objectBoundingBox" id="filter-36">
            <feGaussianBlur stdDeviation="2" in="SourceGraphic"/>
        </filter>
        <filter x="-100.0%" y="-100.0%" width="300.0%" height="300.0%" filterUnits="objectBoundingBox" id="filter-37">
            <feGaussianBlur stdDeviation="2" in="SourceGraphic"/>
        </filter>
        <filter x="-100.0%" y="-100.0%" width="300.0%" height="300.0%" filterUnits="objectBoundingBox" id="filter-38">
            <feGaussianBlur stdDeviation="2" in="SourceGraphic"/>
        </filter>
        <filter x="-75.0%" y="-75.0%" width="250.0%" height="250.0%" filterUnits="objectBoundingBox" id="filter-39">
            <feGaussianBlur stdDeviation="2" in="SourceGraphic"/>
        </filter>
        <filter x="-100.0%" y="-100.0%" width="300.0%" height="300.0%" filterUnits="objectBoundingBox" id="filter-40">
            <feGaussianBlur stdDeviation="2" in="SourceGraphic"/>
        </filter>
        <filter x="-100.0%" y="-100.0%" width="300.0%" height="300.0%" filterUnits="objectBoundingBox" id="filter-41">
            <feGaussianBlur stdDeviation="2" in="SourceGraphic"/>
        </filter>
        <filter x="-60.0%" y="-60.0%" width="220.0%" height="220.0%" filterUnits="objectBoundingBox" id="filter-42">
            <feGaussianBlur stdDeviation="2" in="SourceGraphic"/>
        </filter>
        <filter x="-60.0%" y="-60.0%" width="220.0%" height="220.0%" filterUnits="objectBoundingBox" id="filter-43">
            <feGaussianBlur stdDeviation="2" in="SourceGraphic"/>
        </filter>
    </defs>
    <g id="Web" stroke="none" stroke-width="1" fill="none" fill-rule="evenodd">
        <g id="Noël-cover" transform="translate(-3.000000, -924.000000)" fill="#FFFFFF">
            <g id="Stars" transform="translate(6.000000, 927.000000)">
                <g id="Stars-top">
                    <ellipse id="Oval-4" filter="url(#filter-1)" cx="783.071106" cy="305.75" rx="2.251693" ry="2.25"/>
                    <ellipse id="Oval-4-Copy-4" filter="url(#filter-2)" cx="412.292325" cy="112.25" rx="2.251693" ry="2.25"/>
                    <ellipse id="Oval-4-Copy" filter="url(#filter-3)" cx="660.72912" cy="155" rx="1.50112867" ry="1.5"/>
                    <ellipse id="Oval-4-Copy-5" filter="url(#filter-4)" cx="846.11851" cy="112.25" rx="1" ry="1"/>
                    <ellipse id="Oval-4-Copy-6" filter="url(#filter-5)" cx="491.852144" cy="196.25" rx="1" ry="1"/>
                    <ellipse id="Oval-4-Copy-9" filter="url(#filter-6)" cx="799.583521" cy="203.75" rx="1" ry="1"/>
                    <ellipse id="Oval-4-Copy-7" filter="url(#filter-7)" cx="382.269752" cy="493.25" rx="1" ry="1"/>
                    <ellipse id="Oval-4-Copy-2" filter="url(#filter-8)" cx="867.884876" cy="360.5" rx="1.50112867" ry="1.5"/>
                    <ellipse id="Oval-4-Copy-3" filter="url(#filter-9)" cx="407.038375" cy="360.5" rx="1.50112867" ry="1.5"/>
                    <ellipse id="Oval-4" filter="url(#filter-10)" transform="translate(152.951234, 219.976445) rotate(-150.000000) translate(-152.951234, -219.976445) " cx="152.951234" cy="219.976445" rx="2.251693" ry="2.25"/>
                    <ellipse id="Oval-4-Copy-4" filter="url(#filter-11)" transform="translate(377.305077, 572.941752) rotate(-150.000000) translate(-377.305077, -572.941752) " cx="377.305077" cy="572.941752" rx="2.251693" ry="2.25"/>
                    <ellipse id="Oval-4-Copy" filter="url(#filter-12)" transform="translate(183.527502, 411.700768) rotate(-150.000000) translate(-183.527502, -411.700768) " cx="183.527502" cy="411.700768" rx="1.50112867" ry="1.5"/>
                    <ellipse id="Oval-4-Copy-5" filter="url(#filter-13)" transform="translate(1.600580, 356.028659) rotate(-150.000000) translate(-1.600580, -356.028659) " cx="1.60058001" cy="356.028659" rx="1" ry="1"/>
                    <ellipse id="Oval-4-Copy-6" filter="url(#filter-14)" transform="translate(350.404252, 460.415708) rotate(-150.000000) translate(-350.404252, -460.415708) " cx="350.404252" cy="460.415708" rx="1" ry="1"/>
                    <ellipse id="Oval-4-Copy-9" filter="url(#filter-15)" transform="translate(87.651062, 300.054829) rotate(-150.000000) translate(-87.651062, -300.054829) " cx="87.6510624" cy="300.054829" rx="1" ry="1"/>
                    <ellipse id="Oval-4-Copy-7" filter="url(#filter-16)" transform="translate(593.805388, 257.997359) rotate(-150.000000) translate(-593.805388, -257.997359) " cx="593.805388" cy="257.997359" rx="1" ry="1"/>
                    <ellipse id="Oval-4-Copy-2" filter="url(#filter-17)" transform="translate(106.875354, 130.154670) rotate(-150.000000) translate(-106.875354, -130.154670) " cx="106.875354" cy="130.15467" rx="1.50112867" ry="1.5"/>
                    <ellipse id="Oval-4-Copy-3" filter="url(#filter-18)" transform="translate(505.980132, 360.577920) rotate(-150.000000) translate(-505.980132, -360.577920) " cx="505.980132" cy="360.57792" rx="1.50112867" ry="1.5"/>
                    <ellipse id="Oval-4" filter="url(#filter-19)" transform="translate(849.343667, 198.332763) scale(-1, 1) rotate(-393.000000) translate(-849.343667, -198.332763) " cx="849.343667" cy="198.332763" rx="2.251693" ry="2.25"/>
                    <ellipse id="Oval-4-Copy-4" filter="url(#filter-20)" transform="translate(1265.692571, 237.990606) scale(-1, 1) rotate(-393.000000) translate(-1265.692571, -237.990606) " cx="1265.69257" cy="237.990606" rx="2.251693" ry="2.25"/>
                    <ellipse id="Oval-4-Copy" filter="url(#filter-21)" transform="translate(1034.052625, 138.535396) scale(-1, 1) rotate(-393.000000) translate(-1034.052625, -138.535396) " cx="1034.05262" cy="138.535396" rx="1.50112867" ry="1.5"/>
                    <ellipse id="Oval-4-Copy-5" filter="url(#filter-22)" transform="translate(901.855318, 1.711931) scale(-1, 1) rotate(-393.000000) translate(-901.855318, -1.711931) " cx="901.855318" cy="1.71193095" rx="1" ry="1"/>
                    <ellipse id="Oval-4-Copy-6" filter="url(#filter-23)" transform="translate(1153.218413, 265.107550) scale(-1, 1) rotate(-393.000000) translate(-1153.218413, -265.107550) " cx="1153.21841" cy="265.10755" rx="1" ry="1"/>
                    <ellipse id="Oval-4-Copy-9" filter="url(#filter-24)" transform="translate(891.048372, 103.795059) scale(-1, 1) rotate(-393.000000) translate(-891.048372, -103.795059) " cx="891.048372" cy="103.795059" rx="1" ry="1"/>
                    <ellipse id="Oval-4-Copy-7" filter="url(#filter-25)" transform="translate(1083.364147, 573.875558) scale(-1, 1) rotate(-393.000000) translate(-1083.364147, -573.875558) " cx="1083.36415" cy="573.875558" rx="1" ry="1"/>
                    <ellipse id="Oval-4-Copy-2" filter="url(#filter-26)" transform="translate(748.393867, 198.057087) scale(-1, 1) rotate(-393.000000) translate(-748.393867, -198.057087) " cx="748.393867" cy="198.057087" rx="1.50112867" ry="1.5"/>
                    <ellipse id="Oval-4-Copy-3" filter="url(#filter-27)" transform="translate(1134.892264, 449.052081) scale(-1, 1) rotate(-393.000000) translate(-1134.892264, -449.052081) " cx="1134.89226" cy="449.052081" rx="1.50112867" ry="1.5"/>
                </g>
                <g transform="translate(86.000000, 408.000000)">
                    <rect id="Rectangle" filter="url(#filter-28)" transform="translate(1014.000000, 516.000000) scale(-1, 1) translate(-1014.000000, -516.000000) " x="1008" y="510" width="12" height="12" rx="6"/>
                    <rect id="Rectangle-Copy-5" filter="url(#filter-29)" transform="translate(988.000000, 559.000000) scale(-1, 1) translate(-988.000000, -559.000000) " x="985" y="556" width="6" height="6" rx="3"/>
                    <rect id="Rectangle-Copy-6" filter="url(#filter-30)" transform="translate(1054.500000, 624.500000) scale(-1, 1) translate(-1054.500000, -624.500000) " x="1050" y="620" width="9" height="9" rx="4.5"/>
                    <rect id="Rectangle-Copy-5" filter="url(#filter-31)" transform="translate(503.000000, 826.000000) scale(-1, 1) translate(-503.000000, -826.000000) " x="500" y="823" width="6" height="6" rx="3"/>
                    <rect id="Rectangle-Copy-6" filter="url(#filter-32)" transform="translate(486.000000, 856.000000) scale(-1, 1) translate(-486.000000, -856.000000) " x="484" y="854" width="4" height="4" rx="2"/>
                    <rect id="Rectangle-Copy-17" filter="url(#filter-33)" transform="translate(901.000000, 1163.000000) scale(-1, 1) translate(-901.000000, -1163.000000) " x="899" y="1161" width="4" height="4" rx="2"/>
                    <rect id="Rectangle-Copy-11" filter="url(#filter-34)" transform="translate(12.000000, 431.000000) scale(-1, 1) translate(-12.000000, -431.000000) " x="10" y="429" width="4" height="4" rx="2"/>
                    <rect id="Rectangle-Copy-12" filter="url(#filter-35)" transform="translate(20.000000, 268.000000) scale(-1, 1) translate(-20.000000, -268.000000) " x="18" y="266" width="4" height="4" rx="2"/>
                    <rect id="Rectangle-Copy-5" filter="url(#filter-36)" transform="translate(547.000000, 924.000000) scale(-1, 1) translate(-547.000000, -924.000000) " x="544" y="921" width="6" height="6" rx="3"/>
                    <rect id="Rectangle-Copy-16" filter="url(#filter-37)" transform="translate(1101.000000, 1225.000000) scale(-1, 1) translate(-1101.000000, -1225.000000) " x="1098" y="1222" width="6" height="6" rx="3"/>
                    <path d="M61,385 L61,385 L61,385 C62.6568542,385 64,386.343146 64,388 L64,388 L64,388 C64,389.656854 62.6568542,391 61,391 L61,391 L61,391 C59.3431458,391 58,389.656854 58,388 L58,388 L58,388 C58,386.343146 59.3431458,385 61,385 Z" id="Rectangle-Copy-10" filter="url(#filter-38)" transform="translate(61.000000, 388.000000) scale(-1, 1) translate(-61.000000, -388.000000) "/>
                    <path d="M1004,52 L1004,52 L1004,52 C1006.20914,52 1008,53.790861 1008,56 L1008,56 L1008,56 C1008,58.209139 1006.20914,60 1004,60 L1004,60 L1004,60 C1001.79086,60 1000,58.209139 1000,56 L1000,56 L1000,56 C1000,53.790861 1001.79086,52 1004,52 Z" id="Rectangle-Copy-13" filter="url(#filter-39)" transform="translate(1004.000000, 56.000000) scale(-1, 1) translate(-1004.000000, -56.000000) "/>
                    <path d="M936,135 L936,135 L936,135 C937.656854,135 939,136.343146 939,138 L939,138 L939,138 C939,139.656854 937.656854,141 936,141 L936,141 L936,141 C934.343146,141 933,139.656854 933,138 L933,138 L933,138 C933,136.343146 934.343146,135 936,135 Z" id="Rectangle-Copy-14" filter="url(#filter-40)" transform="translate(936.000000, 138.000000) scale(-1, 1) translate(-936.000000, -138.000000) "/>
                    <rect id="Rectangle-Copy-9" filter="url(#filter-41)" transform="translate(109.000000, 1074.000000) scale(-1, 1) translate(-109.000000, -1074.000000) " x="106" y="1071" width="6" height="6" rx="3"/>
                    <rect id="Rectangle-Copy-8" filter="url(#filter-42)" transform="translate(5.000000, 1233.000000) scale(-1, 1) translate(-5.000000, -1233.000000) " x="0" y="1228" width="10" height="10" rx="5"/>
                    <rect id="Rectangle-Copy-15" filter="url(#filter-43)" transform="translate(479.000000, 5.000000) scale(-1, 1) translate(-479.000000, -5.000000) " x="474" y="0" width="10" height="10" rx="5"/>
                </g>
            </g>
        </g>
    </g>
</svg>